<svg width="124" height="124" viewBox="0 0 124 124" fill="none" xmlns="http://www.w3.org/2000/svg">
<g id="Component">
<path id="Vector" d="M105.658 109.347L87.8333 91.5223V106.692H82.6667V82.6667H106.692V87.8333H91.3932L109.218 105.658L105.658 109.347ZM62 108.5C55.5658 108.5 49.5208 107.281 43.865 104.842C38.2092 102.403 33.2888 99.0898 29.1038 94.9013C24.9188 90.7129 21.6053 85.7942 19.1632 80.1453C16.7211 74.4964 15.5 68.4532 15.5 62.0155C15.5 55.5778 16.7211 49.5328 19.1632 43.8805C21.6018 38.2213 24.9102 33.2974 29.0883 29.109C33.2664 24.9206 38.1868 21.6053 43.8495 19.1632C49.5122 16.7211 55.5572 15.5 61.9845 15.5C68.4118 15.5 74.4568 16.7211 80.1195 19.1632C85.7822 21.6053 90.706 24.9188 94.891 29.1038C99.076 33.2888 102.391 38.2092 104.837 43.865C107.282 49.5208 108.503 55.5658 108.5 62C108.5 63.3916 108.44 64.7831 108.319 66.1747C108.199 67.5662 108.014 68.9578 107.766 70.3493H102.44C102.736 68.9578 102.96 67.5662 103.111 66.1747C103.259 64.7831 103.333 63.3916 103.333 62C103.333 59.9678 103.192 57.9356 102.91 55.9033C102.627 53.8711 102.173 51.863 101.546 49.879H80.6982C81.0908 51.8664 81.3664 53.8763 81.5248 55.9085C81.6902 57.9407 81.7728 59.9712 81.7728 62C81.7728 63.3916 81.7332 64.7831 81.654 66.1747C81.5748 67.5662 81.4542 68.9578 81.2923 70.3493H76.1257C76.2876 68.9578 76.4081 67.5662 76.4873 66.1747C76.5666 64.7831 76.6062 63.3916 76.6062 62C76.6062 59.9678 76.5252 57.9356 76.3633 55.9033C76.2014 53.8711 75.9259 51.863 75.5367 49.879H48.4633C48.0741 51.8664 47.7986 53.878 47.6367 55.9137C47.4748 57.9528 47.3938 59.9902 47.3938 62.0258C47.3938 64.0615 47.4748 66.0903 47.6367 68.1122C47.7986 70.1306 48.0741 72.1336 48.4633 74.121H69.1558V79.2877H49.6982C50.9554 83.7138 52.5777 87.9608 54.5652 92.0287C56.5561 96.0931 59.0343 99.8751 62 103.375C63.3916 103.375 64.7831 103.299 66.1747 103.147C67.5662 102.999 68.9578 102.839 70.3493 102.667V107.792C68.9578 107.964 67.5662 108.126 66.1747 108.278C64.7831 108.426 63.3916 108.5 62 108.5ZM22.4543 74.121H43.3018C42.9092 72.1336 42.6336 70.122 42.4752 68.0863C42.3098 66.0507 42.2272 64.0133 42.2272 61.9742C42.2272 59.9385 42.3081 57.9097 42.47 55.8878C42.6319 53.8694 42.9074 51.8664 43.2967 49.879H22.4595C21.8326 51.8664 21.3779 53.878 21.0955 55.9137C20.8096 57.9528 20.6667 59.9902 20.6667 62.0258C20.6667 64.0615 20.8079 66.0903 21.0903 68.1122C21.3728 70.1341 21.8274 72.137 22.4543 74.121ZM24.5623 44.7123H44.3248C45.3306 40.3999 46.7291 36.2666 48.5202 32.3123C50.3113 28.365 52.6122 24.6622 55.4228 21.204C48.5684 22.2236 42.4338 24.8189 37.0192 28.9902C31.6114 33.1579 27.4591 38.3987 24.5623 44.7123ZM55.4228 102.796C52.8119 99.2723 50.5954 95.5351 48.7733 91.5843C46.9478 87.6336 45.4822 83.5347 44.3765 79.2877H24.5623C27.4557 85.5324 31.6252 90.7404 37.0708 94.9117C42.5131 99.0794 48.6304 101.708 55.4228 102.796ZM49.6982 44.7123H74.3018C73.1342 40.2793 71.5067 36.0668 69.4193 32.0747C67.332 28.0826 64.8589 24.2661 62 20.6253C59.0998 24.1249 56.6163 27.9069 54.5497 31.9713C52.483 36.0358 50.8658 40.2828 49.6982 44.7123ZM79.6287 44.7123H99.4377C96.5443 38.3987 92.3921 33.1407 86.9808 28.9385C81.5696 24.7363 75.4351 22.1581 68.5772 21.204C71.1881 24.7277 73.3563 28.4821 75.082 32.4673C76.8077 36.4526 78.3232 40.5342 79.6287 44.7123Z" fill="#F24452"/>
</g>
</svg>
