<?xml version="1.0" encoding="UTF-8" standalone="no"?>
<svg
   width="26"
   height="20"
   viewBox="0 0 26 20"
   fill="none"
   version="1.1"
   id="svg1"
   sodipodi:docname="mail.svg"
   inkscape:export-filename="mail.svg"
   inkscape:export-xdpi="118.15385"
   inkscape:export-ydpi="118.15385"
   inkscape:version="1.4 (e7c3feb1, 2024-10-09)"
   xmlns:inkscape="http://www.inkscape.org/namespaces/inkscape"
   xmlns:sodipodi="http://sodipodi.sourceforge.net/DTD/sodipodi-0.dtd"
   xmlns="http://www.w3.org/2000/svg"
   xmlns:svg="http://www.w3.org/2000/svg">
  <defs
     id="defs1" />
  <sodipodi:namedview
     id="namedview1"
     pagecolor="#ffffff"
     bordercolor="#000000"
     borderopacity="0.25"
     inkscape:showpageshadow="2"
     inkscape:pageopacity="0.0"
     inkscape:pagecheckerboard="0"
     inkscape:deskcolor="#d1d1d1"
     inkscape:zoom="1.3"
     inkscape:cx="12.692308"
     inkscape:cy="10"
     inkscape:window-width="1104"
     inkscape:window-height="611"
     inkscape:window-x="0"
     inkscape:window-y="25"
     inkscape:window-maximized="0"
     inkscape:current-layer="svg1" />
  <g
     id="Group">
    <path
       id="Vector"
       d="M1.00065 0.666667V0C0.82384 0 0.654271 0.070238 0.529247 0.195262C0.404222 0.320287 0.333984 0.489856 0.333984 0.666667H1.00065ZM25.0007 0.666667H25.6673C25.6673 0.489856 25.5971 0.320287 25.4721 0.195262C25.347 0.070238 25.1775 0 25.0007 0V0.666667ZM1.00065 1.33333H25.0007V0H1.00065V1.33333ZM24.334 0.666667V16.6667H25.6673V0.666667H24.334ZM22.334 18.6667H3.66732V20H22.334V18.6667ZM1.66732 16.6667V0.666667H0.333984V16.6667H1.66732ZM3.66732 18.6667C3.13688 18.6667 2.62818 18.456 2.2531 18.0809C1.87803 17.7058 1.66732 17.1971 1.66732 16.6667H0.333984C0.333984 17.5507 0.685174 18.3986 1.3103 19.0237C1.93542 19.6488 2.78326 20 3.66732 20V18.6667ZM24.334 16.6667C24.334 17.1971 24.1233 17.7058 23.7482 18.0809C23.3731 18.456 22.8644 18.6667 22.334 18.6667V20C23.218 20 24.0659 19.6488 24.691 19.0237C25.3161 18.3986 25.6673 17.5507 25.6673 16.6667H24.334Z"
       fill="white" />
    <path
       id="Vector_2"
       d="M1 0.666504L13 12.6665L25 0.666504"
       stroke="white"
       stroke-linecap="round"
       stroke-linejoin="round" />
  </g>
</svg>
