<svg width="124" height="124" viewBox="0 0 124 124" fill="none" xmlns="http://www.w3.org/2000/svg">
<g id="arcticons:secure-box">
<path id="Vector" d="M30.0392 47.4299C34.7279 34.5055 47.115 25.2701 61.6617 25.2701C71.2769 25.2701 79.9518 29.3078 86.0148 35.6137M92.9692 48.0654C93.305 49.7833 102.83 76.4433 97.9473 109.742M40.326 19.4834C31.6804 24.0063 24.687 31.148 20.3465 39.8866M93.0415 26.5927C96.4076 29.3388 99.319 33.1544 101.747 37.8845M14.2085 26.5282C17.1823 22.3639 20.6884 18.6069 24.6374 15.3527M98.3916 15.115C102.274 18.2721 105.736 21.9132 108.694 25.9495M28.0422 61.1655C28.0422 61.1655 29.2435 72.8783 29.0342 87.1874M28.1972 102.662C27.9624 105.029 27.6609 107.389 27.2931 109.74M38.9387 109.74C39.8042 105.929 40.1348 102.075 40.4345 98.2002M87.2445 98.1562C87.0703 102.025 86.786 105.888 86.392 109.74M50.587 103.493C50.7162 101.706 50.8195 99.9103 50.9435 98.1459M75.1157 103.855C74.9385 105.819 74.7379 107.781 74.5138 109.74M63.1704 98.2492C63.1058 100.541 62.9999 102.822 62.8423 105.054C62.739 106.56 62.4445 108.296 62.2869 109.742" stroke="#F24452" stroke-width="4" stroke-linecap="round" stroke-linejoin="round"/>
<path id="Vector_2" d="M50.0264 44.4566C50.0264 41.4368 51.226 38.5407 53.3613 36.4055C55.4966 34.2702 58.3926 33.0706 61.4124 33.0706C64.4322 33.0706 67.3283 34.2702 69.4636 36.4055C71.5989 38.5407 72.7985 41.4368 72.7985 44.4566V50.5584" stroke="#F24452" stroke-width="4" stroke-linecap="round" stroke-linejoin="round"/>
<path id="Vector_3" d="M79.1921 50.9924H43.6326C41.3969 50.9924 39.5845 52.8048 39.5845 55.0405V87.7042C39.5845 89.9399 41.3969 91.7523 43.6326 91.7523H79.1921C81.4278 91.7523 83.2402 89.9399 83.2402 87.7042V55.0405C83.2402 52.8048 81.4278 50.9924 79.1921 50.9924Z" stroke="#F24452" stroke-width="4" stroke-linecap="round" stroke-linejoin="round"/>
<path id="Vector_4" d="M50.0264 44.4565V50.9924" stroke="#F24452" stroke-width="4" stroke-miterlimit="7"/>
<path id="Vector_5" d="M61.4109 75.6013C64.6282 75.6013 67.2363 72.9931 67.2363 69.7759C67.2363 66.5586 64.6282 63.9504 61.4109 63.9504C58.1936 63.9504 55.5854 66.5586 55.5854 69.7759C55.5854 72.9931 58.1936 75.6013 61.4109 75.6013Z" stroke="#F24452" stroke-width="4" stroke-linecap="round" stroke-linejoin="round"/>
<path id="Vector_6" d="M99.4585 14.2083H24.5418C21.8013 14.2083 19.1729 15.2969 17.2351 17.2348C15.2972 19.1727 14.2085 21.801 14.2085 24.5416V99.4583C14.2085 102.199 15.2972 104.827 17.2351 106.765C19.1729 108.703 21.8013 109.792 24.5418 109.792H99.4585C102.199 109.792 104.827 108.703 106.765 106.765C108.703 104.827 109.792 102.199 109.792 99.4583V24.5416C109.792 21.801 108.703 19.1727 106.765 17.2348C104.827 15.2969 102.199 14.2083 99.4585 14.2083Z" stroke="#F24452" stroke-width="4" stroke-linecap="round" stroke-linejoin="round"/>
</g>
</svg>
